<svg height="512pt" viewBox="-46 0 512 512" width="512pt" xmlns="http://www.w3.org/2000/svg"><path d="m410 190-320 112.941406v-225.882812zm0 0" fill="#ff5c40"/><path d="m90 502h-40v-432c0-11.050781 8.949219-20 20-20s20 8.949219 20 20zm0 0" fill="#575f64"/><path d="m70 10c11.050781 0 20 8.949219 20 20s-8.949219 20-20 20-20-8.949219-20-20 8.949219-20 20-20zm0 0" fill="#ffe469"/><path d="m290 200c5.519531 0 10-4.480469 10-10s-4.480469-10-10-10-10 4.480469-10 10 4.480469 10 10 10zm0 0"/><path d="m413.328125 180.570312-313.328125-110.585937c-.003906-7.671875-2.90625-14.675781-7.664062-19.984375 4.761718-5.3125 7.664062-12.320312 7.664062-20 0-16.542969-13.457031-30-30-30s-30 13.457031-30 30c0 7.679688 2.902344 14.6875 7.664062 20-4.761718 5.3125-7.664062 12.320312-7.664062 20v422h-30c-5.523438 0-10 4.476562-10 10s4.476562 10 10 10h120c5.523438 0 10-4.476562 10-10s-4.476562-10-10-10h-30v-181.984375l313.328125-110.585937c3.996094-1.410157 6.671875-5.1875 6.671875-9.429688s-2.675781-8.019531-6.671875-9.429688zm-343.328125-160.570312c5.515625 0 10 4.484375 10 10s-4.484375 10-10 10-10-4.484375-10-10 4.484375-10 10-10zm-10 472v-422c0-5.515625 4.484375-10 10-10s10 4.484375 10 10v422zm40-203.191406v-197.617188l279.953125 98.808594zm0 0"/><path d="m126.671875 143.011719 122.257813 43.160156c5.199218 1.832031 10.917968-.886719 12.761718-6.101563 1.835938-5.210937-.894531-10.921874-6.101562-12.761718l-122.261719-43.160156c-5.207031-1.839844-10.921875.894531-12.757813 6.101562-1.839843 5.210938.894532 10.921875 6.101563 12.761719zm0 0"/></svg>